<?xml version="1.0" encoding="UTF-8" standalone="no"?>
<!DOCTYPE svg PUBLIC "-//W3C//DTD SVG 1.1//EN" "http://www.w3.org/Graphics/SVG/1.1/DTD/svg11.dtd">
<svg width="100%" height="100%" viewBox="0 0 325 325" version="1.1" xmlns="http://www.w3.org/2000/svg" xmlns:xlink="http://www.w3.org/1999/xlink" xml:space="preserve" xmlns:serif="http://www.serif.com/" style="fill-rule:evenodd;clip-rule:evenodd;stroke-linejoin:round;stroke-miterlimit:2;">
    <g transform="matrix(1,0,0,1,-2629.5,-368.5)">
        <g transform="matrix(1.14841,0,0,1.14841,2473.316254,198.535336)">
            <path d="M176.55,429.618C167.096,427.405 158.359,422.594 151.382,415.618C147.158,411.393 143.728,406.524 141.188,401.24L307.07,148L323.892,148L419,309.052L419,378.481C419,383.847 418.179,389.128 416.606,394.157L313.687,220.035L176.55,429.618Z" style="fill:white;"/>
            <path d="M416.606,394.157C414.096,402.182 409.672,409.563 403.618,415.618C393.768,425.467 380.41,431 366.481,431L188.519,431C184.456,431 180.442,430.529 176.55,429.618L313.687,220.035L416.606,394.157Z"/>
            <path d="M141.188,401.24C137.805,394.205 136,386.436 136,378.481L136,200.519C136,186.59 141.533,173.232 151.382,163.382C161.232,153.533 174.59,148 188.519,148L307.07,148L141.188,401.24Z"/>
            <path d="M323.892,148L366.481,148C380.41,148 393.768,153.533 403.618,163.382C413.467,173.232 419,186.59 419,200.519L419,309.052L323.892,148Z"/>
        </g>
    </g>
</svg>
