<?xml version="1.0" encoding="UTF-8" standalone="no"?>
<!DOCTYPE svg PUBLIC "-//W3C//DTD SVG 1.1//EN" "http://www.w3.org/Graphics/SVG/1.1/DTD/svg11.dtd">
<svg width="100%" height="100%" viewBox="0 0 1080 1080" version="1.1" xmlns="http://www.w3.org/2000/svg" xmlns:xlink="http://www.w3.org/1999/xlink" xml:space="preserve" xmlns:serif="http://www.serif.com/" style="fill-rule:evenodd;clip-rule:evenodd;stroke-linejoin:round;stroke-miterlimit:2;">
    <rect id="Artboard1" x="0" y="0" width="1080" height="1080" style="fill:none;"/>
    <g id="Artboard11" serif:id="Artboard1">
        <g transform="matrix(0.645948,0,0,0.645948,-125.377997,353.15363)">
            <path d="M660.326,207.051C665.315,207.051 670.085,208.236 674.637,210.605C679.189,212.975 683.149,216.342 686.516,220.707C689.758,224.823 692.19,229.468 693.812,234.644C695.433,239.819 696.244,245.213 696.244,250.825C696.244,256.437 695.433,261.862 693.812,267.1C692.19,272.338 689.758,276.953 686.516,280.944C683.149,285.309 679.189,288.707 674.637,291.139C670.085,293.571 665.315,294.787 660.326,294.787L577.08,294.787L577.08,317.609L557.999,338L557.999,294.787L557.812,294.787L557.999,207.051L660.326,207.051ZM660.326,275.706C662.571,275.706 664.722,275.051 666.78,273.741C668.838,272.432 670.646,270.624 672.205,268.316C673.764,266.009 675.011,263.359 675.946,260.366C676.882,257.373 677.349,254.193 677.349,250.825C677.349,247.458 676.882,244.278 675.946,241.285C675.011,238.292 673.764,235.641 672.205,233.334C670.646,231.027 668.838,229.219 666.78,227.909C664.722,226.6 662.571,225.945 660.326,225.945L577.08,225.945L576.893,264.856L577.08,264.856L577.08,275.706L660.326,275.706Z" style="fill-rule:nonzero;"/>
            <path d="M854.879,337.813L715.138,337.813L715.138,207.051L854.879,207.051L833.927,225.945L734.219,225.945L734.219,262.985L781.735,262.985L796.887,281.879L734.219,281.879L734.219,318.919L837.295,318.919L854.879,337.813Z" style="fill-rule:nonzero;"/>
            <path d="M1019.875,207.051L959.825,272.712L1019.501,338L993.685,338L946.918,286.93L899.963,338L874.334,338L934.01,272.712L873.773,207.051L899.589,207.051L946.918,258.682L994.059,207.051L1019.875,207.051Z" style="fill-rule:nonzero;"/>
            <path d="M1057.85,338.187L1038.769,338.187L1038.769,207.051L1178.511,207.051L1161.674,225.945L1057.85,225.945L1057.85,262.985L1120.145,262.985L1140.161,281.879L1057.85,281.879L1057.85,338.187Z" style="fill-rule:nonzero;"/>
            <path d="M1302.912,337.813L1197.405,337.813L1197.405,207.425L1216.486,226.88L1216.486,318.919L1282.522,318.919L1302.912,337.813Z" style="fill-rule:nonzero;"/>
            <path d="M1445.086,299.089C1441.22,307.071 1435.67,314.18 1428.436,320.415C1421.328,326.776 1413.19,331.608 1404.024,334.913C1394.857,338.218 1385.223,339.871 1375.121,339.871C1365.02,339.871 1355.417,338.218 1346.313,334.913C1337.208,331.608 1329.04,326.776 1321.806,320.415C1314.698,314.055 1309.21,306.946 1305.344,299.089C1301.229,290.484 1299.171,281.567 1299.171,272.338C1299.171,262.985 1301.229,254.068 1305.344,245.587C1309.335,237.481 1314.822,230.31 1321.806,224.074C1329.04,217.714 1337.208,212.881 1346.313,209.576C1355.417,206.271 1365.02,204.619 1375.121,204.619C1385.223,204.619 1394.857,206.271 1404.024,209.576C1413.19,212.881 1421.328,217.714 1428.436,224.074C1435.545,230.31 1441.095,237.481 1445.086,245.587C1447.081,249.828 1448.609,254.161 1449.669,258.589C1450.729,263.016 1451.259,267.599 1451.259,272.338C1451.259,276.953 1450.729,281.474 1449.669,285.901C1448.609,290.328 1447.081,294.724 1445.086,299.089ZM1375.121,320.79C1382.978,320.79 1390.368,319.511 1397.289,316.955C1404.211,314.398 1410.259,310.937 1415.435,306.572C1420.611,302.207 1424.695,297.094 1427.688,291.232C1430.681,285.371 1432.178,279.073 1432.178,272.338C1432.178,265.604 1430.681,259.306 1427.688,253.444C1424.695,247.583 1420.611,242.438 1415.435,238.011C1410.259,233.584 1404.211,230.092 1397.289,227.535C1390.368,224.978 1382.978,223.7 1375.121,223.7C1367.264,223.7 1359.875,224.978 1352.954,227.535C1346.032,230.092 1340.015,233.584 1334.901,238.011C1329.788,242.438 1325.735,247.583 1322.742,253.444C1319.749,259.306 1318.252,265.604 1318.252,272.338C1318.252,279.073 1319.749,285.371 1322.742,291.232C1325.735,297.094 1329.788,302.207 1334.901,306.572C1340.015,310.937 1346.032,314.398 1352.954,316.955C1359.875,319.511 1367.264,320.79 1375.121,320.79Z" style="fill-rule:nonzero;"/>
            <path d="M1670.318,207.051L1691.831,207.051L1618.687,341.367L1573.416,268.784L1533.757,341.367L1449.949,207.051L1472.398,207.051L1532.634,303.766L1585.388,207.051L1606.901,207.051L1583.705,249.516L1617.564,303.766L1670.318,207.051Z" style="fill-rule:nonzero;"/>
        </g>
        <g transform="matrix(0.29682,0,0,0.29682,85.632509,443.570671)">
            <path d="M176.55,429.618C167.096,427.405 158.359,422.594 151.382,415.618C147.158,411.393 143.728,406.524 141.188,401.24L307.07,148L323.892,148L419,309.052L419,378.481C419,383.847 418.179,389.128 416.606,394.157L313.687,220.035L176.55,429.618Z" style="fill:white;"/>
            <path d="M416.606,394.157C414.096,402.182 409.672,409.563 403.618,415.618C393.768,425.467 380.41,431 366.481,431L188.519,431C184.456,431 180.442,430.529 176.55,429.618L313.687,220.035L416.606,394.157Z"/>
            <path d="M141.188,401.24C137.805,394.205 136,386.436 136,378.481L136,200.519C136,186.59 141.533,173.232 151.382,163.382C161.232,153.533 174.59,148 188.519,148L307.07,148L141.188,401.24Z"/>
            <path d="M323.892,148L366.481,148C380.41,148 393.768,153.533 403.618,163.382C413.467,173.232 419,186.59 419,200.519L419,309.052L323.892,148Z"/>
        </g>
    </g>
</svg>
